<svg aria-hidden="true" style="position: absolute; width: 0; height: 0; overflow: hidden;" version="1.1" xmlns="http://www.w3.org/2000/svg" xmlns:xlink="http://www.w3.org/1999/xlink">
<defs>
<symbol id="icon-seat_cinema" viewBox="0 0 31 32">
<path fill="#fff" style="fill: var(--color1, #fff)" d="M16.552 6.069c0-0.304-0.247-0.551-0.551-0.551v0h-1.104c-0.304 0-0.551 0.247-0.551 0.551v0.551h2.206z"></path>
<path fill="#fff" style="fill: var(--color1, #fff)" d="M7.724 2.758h7.172v1.655h1.104v-1.655h7.173c1.523-0.002 2.756-1.236 2.758-2.758v-0h-1.104c0 0.914-0.741 1.655-1.655 1.655h-15.444c-0.914 0-1.655-0.741-1.655-1.655v0h-1.104c0.002 1.521 1.234 2.754 2.754 2.758h0z"></path>
<path fill="#fff" style="fill: var(--color1, #fff)" d="M3.862 20.965h1.104v-8.602c-0.523-0.2-1.042-0.414-1.555-0.646l-0.327-0.148 0.455-1.006 0.327 0.149c3.403 1.575 7.386 2.493 11.583 2.493s8.18-0.919 11.758-2.566l-0.175 0.072 0.327-0.149 0.455 1.008-0.327 0.148c-0.513 0.232-1.032 0.449-1.555 0.644v8.602h1.104c2.132-0.003 3.859-1.73 3.862-3.862v-6.621c-0.002-1.523-1.236-2.756-2.758-2.758h-25.38c-1.523 0.002-2.756 1.236-2.758 2.758v6.621c0.003 2.132 1.73 3.859 3.862 3.862h0z"></path>
<path fill="#fff" style="fill: var(--color1, #fff)" d="M6.068 12.761v15.377c0.003 2.132 1.73 3.859 3.862 3.862h11.035c2.132-0.003 3.859-1.73 3.862-3.862v-15.377c-2.797 0.979-6.022 1.545-9.379 1.545s-6.582-0.566-9.585-1.607l0.205 0.062zM8.275 21.517h1.107v2.206h-1.104zM14.345 30.901h-3.311c-1.523-0.002-2.756-1.236-2.758-2.758v-3.311h1.107v3.306c0 0.914 0.741 1.655 1.655 1.655v0h3.307z"></path>
<path fill="#fff" style="fill: var(--color1, #fff)" d="M14.752 31.563l-5.542-0.195-1.252-1.495s-1.026-4.070-1.037-4.22 0.71-4.974 0.71-4.974 4.992-0.92 5.164-0.668-1.237 8.334-1.237 8.334h4.736z"></path>
</symbol>
<symbol id="icon-occupied" viewBox="0 0 32 32">
<path fill="#ff0500" style="fill: var(--color2, #ff0500)" d="M32 16c0 8.837-7.163 16-16 16s-16-7.163-16-16c0-8.837 7.163-16 16-16s16 7.163 16 16z"></path>
</symbol>
<symbol id="icon-selected-seat" viewBox="0 0 32 32">
<path fill="#83aa56" style="fill: var(--color3, #83aa56)" d="M32 16c0 8.837-7.163 16-16 16s-16-7.163-16-16c0-8.837 7.163-16 16-16s16 7.163 16 16z"></path>
<path fill="#fff" style="fill: var(--color1, #fff)" d="M12.345 20.889l-4.909-4.909-1.663 1.663 6.571 6.571 14.115-14.115-1.663-1.663z"></path>
</symbol>
<symbol id="icon-screen-cinema" viewBox="0 0 32 32">
<path fill="#77a246" style="fill: var(--color4, #77a246)" d="M31.793 0.408c-0.093-0.162-0.265-0.269-0.461-0.269-0 0-0 0-0 0h-20.71v1.062h19.765l-1.274 2.124h-6.282v1.062h5.656l-0.637 1.062h-23.832l-0.637-1.062h16.267v-1.062h-16.904l-1.274-2.124h5.965v-1.062h-6.904c-0.001 0-0.001 0-0.002 0-0.293 0-0.53 0.237-0.53 0.53 0 0.102 0.029 0.196 0.078 0.277l-0.001-0.002 3.188 5.31c0.094 0.155 0.263 0.257 0.454 0.257 0 0 0.001 0 0.001 0h24.425c0 0 0.001 0 0.001 0 0.192 0 0.36-0.102 0.453-0.255l0.001-0.002 3.186-5.31c0.048-0.078 0.076-0.173 0.076-0.274 0-0.096-0.026-0.187-0.070-0.264l0.001 0.003z"></path>
<path fill="#77a246" style="fill: var(--color4, #77a246)" d="M8.626 0h1.461v1.461h-1.461v-1.461z"></path>
<path fill="#77a246" style="fill: var(--color4, #77a246)" d="M20.313 2.922h1.461v1.461h-1.461v-1.461z"></path>
<path fill="#77a246" style="fill: var(--color4, #77a246)" d="M8.498 20.318h-0.532v-1.592c-0.001-0.879-0.713-1.592-1.592-1.594h-2.124c-0.88 0.001-1.593 0.714-1.594 1.594v1.594h-0.53c-0 0-0.001 0-0.001 0-0.293 0-0.53 0.237-0.53 0.53 0 0 0 0 0 0v0 2.126c0 0 0 0 0 0 0 0.293 0.237 0.53 0.53 0.53 0.001 0 0.001 0 0.002 0h6.372c0.293 0 0.53-0.237 0.53-0.53v0-2.126c0-0 0-0.001 0-0.001 0-0.293-0.237-0.53-0.53-0.53 0 0 0 0 0 0v0zM7.966 22.442h-5.31v-1.062h0.532c0 0 0.001 0 0.001 0 0.293 0 0.53-0.237 0.53-0.53 0-0 0-0.001 0-0.002v0-2.123c0-0.294 0.238-0.532 0.532-0.532v0h2.123c0.294 0 0.532 0.238 0.532 0.532v0 2.124c0 0 0 0 0 0 0 0.293 0.237 0.53 0.53 0.53 0 0 0.001 0 0.002 0h0.532z"></path>
<path fill="#77a246" style="fill: var(--color4, #77a246)" d="M8.498 28.814h-0.532v-1.592c-0.001-0.879-0.713-1.592-1.592-1.594h-2.124c-0.88 0.001-1.593 0.714-1.594 1.594v1.594h-0.53c-0 0-0.001 0-0.001 0-0.293 0-0.53 0.237-0.53 0.53 0 0 0 0 0 0v0 2.126c0 0 0 0.001 0 0.001 0 0.293 0.237 0.53 0.53 0.53 0.001 0 0.001 0 0.002 0h6.372c0 0 0 0 0 0 0.293 0 0.53-0.237 0.53-0.53 0-0 0-0.001 0-0.002v0-2.126c0-0 0-0.001 0-0.001 0-0.293-0.237-0.53-0.53-0.53 0 0 0 0 0 0v0zM7.966 30.938h-5.31v-1.062h0.532c0 0 0.001 0 0.001 0 0.293 0 0.53-0.237 0.53-0.53 0 0 0 0 0 0v0-2.124c0.001-0.293 0.239-0.53 0.532-0.53 0 0 0 0 0 0h2.123c0 0 0 0 0 0 0.293 0 0.531 0.237 0.532 0.53v2.124c0 0 0 0 0 0 0 0.293 0.237 0.53 0.53 0.53 0 0 0.001 0 0.002 0h0.532z"></path>
<path fill="#77a246" style="fill: var(--color4, #77a246)" d="M8.498 11.821h-0.532v-1.592c-0.001-0.879-0.713-1.592-1.592-1.594h-2.124c-0.88 0.001-1.593 0.714-1.594 1.594v1.594h-0.53c-0 0-0.001 0-0.001 0-0.293 0-0.53 0.237-0.53 0.53 0 0 0 0 0 0v0 2.126c0 0 0 0 0 0 0 0.293 0.237 0.53 0.53 0.53 0.001 0 0.001 0 0.002 0h6.372c0.293 0 0.53-0.237 0.53-0.53v0-2.126c0-0 0-0.001 0-0.001 0-0.293-0.237-0.53-0.53-0.53 0 0 0 0 0 0v0zM7.966 13.945h-5.31v-1.062h0.532c0 0 0.001 0 0.001 0 0.293 0 0.53-0.237 0.53-0.53 0-0.001 0-0.001 0-0.002v0-2.123c0-0.294 0.238-0.532 0.532-0.532v0h2.123c0.294 0 0.532 0.238 0.532 0.532v2.124c0 0 0 0 0 0 0 0.293 0.237 0.53 0.53 0.53 0 0 0.001 0 0.002 0h0.532z"></path>
<path fill="#77a246" style="fill: var(--color4, #77a246)" d="M19.118 20.318h-0.532v-1.592c-0.001-0.879-0.713-1.592-1.592-1.594h-2.124c-0.88 0.001-1.593 0.714-1.594 1.594v1.594h-0.53c-0 0-0.001 0-0.001 0-0.293 0-0.53 0.237-0.53 0.53 0 0 0 0 0 0v0 2.126c0 0 0 0 0 0 0 0.293 0.237 0.53 0.53 0.53 0.001 0 0.001 0 0.002 0h6.372c0.293 0 0.53-0.237 0.53-0.53v0-2.126c0-0 0-0.001 0-0.001 0-0.293-0.237-0.53-0.53-0.53 0 0 0 0 0 0v0zM18.586 22.442h-5.31v-1.062h0.532c0 0 0.001 0 0.001 0 0.293 0 0.53-0.237 0.53-0.53 0-0 0-0.001 0-0.002v0-2.123c0-0.294 0.238-0.532 0.532-0.532v0h2.124c0.294 0 0.532 0.238 0.532 0.532v0 2.124c0 0 0 0.001 0 0.001 0 0.293 0.237 0.53 0.53 0.53 0 0 0.001 0 0.002 0h0.53z"></path>
<path fill="#77a246" style="fill: var(--color4, #77a246)" d="M19.118 28.814h-0.532v-1.592c-0.001-0.879-0.713-1.592-1.592-1.594h-2.124c-0.88 0.001-1.593 0.714-1.594 1.594v1.594h-0.53c-0 0-0.001 0-0.001 0-0.293 0-0.53 0.237-0.53 0.53 0 0 0 0.001 0 0.002v-0 2.124c0 0 0 0.001 0 0.001 0 0.293 0.237 0.53 0.53 0.53 0.001 0 0.001 0 0.002 0h6.372c0 0 0 0 0 0 0.293 0 0.53-0.237 0.53-0.53 0-0 0-0.001 0-0.002v0-2.126c0-0 0-0.001 0-0.001 0-0.293-0.237-0.53-0.53-0.53 0 0 0 0 0 0v0zM18.586 30.938h-5.31v-1.062h0.532c0 0 0.001 0 0.001 0 0.293 0 0.53-0.237 0.53-0.53 0 0 0 0 0 0v0-2.124c0.001-0.293 0.239-0.53 0.532-0.53 0 0 0 0 0 0h2.124c0 0 0 0 0 0 0.293 0 0.531 0.237 0.532 0.53v2.124c0 0 0 0 0 0 0 0.293 0.237 0.53 0.53 0.53 0 0 0.001 0 0.002 0h0.53z"></path>
<path fill="#77a246" style="fill: var(--color4, #77a246)" d="M19.118 11.821h-0.532v-1.592c-0.001-0.879-0.713-1.592-1.592-1.594h-2.124c-0.88 0.001-1.593 0.714-1.594 1.594v1.594h-0.53c-0 0-0.001 0-0.001 0-0.293 0-0.53 0.237-0.53 0.53 0 0 0 0 0 0v0 2.126c0 0 0 0 0 0 0 0.293 0.237 0.53 0.53 0.53 0.001 0 0.001 0 0.002 0h6.372c0.293 0 0.53-0.237 0.53-0.53v0-2.126c0-0 0-0.001 0-0.001 0-0.293-0.237-0.53-0.53-0.53 0 0 0 0 0 0v0zM18.586 13.945h-5.31v-1.062h0.532c0 0 0.001 0 0.001 0 0.293 0 0.53-0.237 0.53-0.53 0-0.001 0-0.001 0-0.002v0-2.123c0-0.294 0.238-0.532 0.532-0.532v0h2.124c0.294 0 0.532 0.238 0.532 0.532v0 2.124c0 0 0 0.001 0 0.001 0 0.293 0.237 0.53 0.53 0.53 0 0 0.001 0 0.002 0h0.53z"></path>
<path fill="#77a246" style="fill: var(--color4, #77a246)" d="M29.739 20.318h-0.53v-1.592c-0.001-0.88-0.714-1.593-1.594-1.594h-2.124c-0.879 0.002-1.591 0.714-1.592 1.594v1.594h-0.532c-0 0-0.001 0-0.001 0-0.293 0-0.53 0.237-0.53 0.53 0 0 0 0 0 0v0 2.126c0 0 0 0 0 0 0 0.293 0.237 0.53 0.53 0.53 0 0 0.001 0 0.002 0h6.372c0.293 0 0.53-0.237 0.53-0.53v0-2.126c0-0 0-0.001 0-0.001 0-0.293-0.237-0.53-0.53-0.53 0 0 0 0 0 0v0zM29.208 22.442h-5.312v-1.062h0.53c0 0 0 0 0 0 0.293 0 0.53-0.237 0.53-0.53 0-0 0-0.001 0-0.002v0-2.123c0-0.294 0.238-0.532 0.532-0.532v0h2.124c0.294 0 0.532 0.238 0.532 0.532v0 2.124c0 0 0 0.001 0 0.001 0 0.293 0.237 0.53 0.53 0.53 0 0 0.001 0 0.002 0h0.532z"></path>
<path fill="#77a246" style="fill: var(--color4, #77a246)" d="M29.739 28.814h-0.53v-1.592c-0.001-0.88-0.714-1.593-1.594-1.594h-2.124c-0.879 0.002-1.591 0.714-1.592 1.594v1.594h-0.532c-0 0-0.001 0-0.001 0-0.293 0-0.53 0.237-0.53 0.53 0 0 0 0.001 0 0.002v-0 2.124c0 0 0 0.001 0 0.001 0 0.293 0.237 0.53 0.53 0.53 0 0 0.001 0 0.002 0h6.372c0 0 0 0 0 0 0.293 0 0.53-0.237 0.53-0.53 0-0 0-0.001 0-0.002v0-2.126c0-0 0-0.001 0-0.001 0-0.293-0.237-0.53-0.53-0.53 0 0 0 0 0 0v0zM29.208 30.938h-5.312v-1.062h0.53c0.293 0 0.53-0.237 0.53-0.53v0-2.124c0.001-0.293 0.239-0.53 0.532-0.53 0 0 0 0 0 0h2.124c0 0 0 0 0 0 0.293 0 0.531 0.237 0.532 0.53v2.124c0 0 0 0 0 0 0 0.293 0.237 0.53 0.53 0.53 0 0 0.001 0 0.002 0h0.532z"></path>
<path fill="#77a246" style="fill: var(--color4, #77a246)" d="M29.739 11.821h-0.53v-1.592c-0.001-0.88-0.714-1.593-1.594-1.594h-2.124c-0.879 0.002-1.591 0.714-1.592 1.594v1.594h-0.532c-0 0-0.001 0-0.001 0-0.293 0-0.53 0.237-0.53 0.53 0 0 0 0 0 0v0 2.126c0 0 0 0 0 0 0 0.293 0.237 0.53 0.53 0.53 0 0 0.001 0 0.002 0h6.372c0.293 0 0.53-0.237 0.53-0.53v0-2.126c0-0 0-0.001 0-0.001 0-0.293-0.237-0.53-0.53-0.53 0 0 0 0 0 0v0zM29.208 13.945h-5.312v-1.062h0.53c0 0 0 0 0 0 0.293 0 0.53-0.237 0.53-0.53 0-0.001 0-0.001 0-0.002v0-2.123c0-0.294 0.238-0.532 0.532-0.532v0h2.124c0.294 0 0.532 0.238 0.532 0.532v0 2.124c0 0 0 0.001 0 0.001 0 0.293 0.237 0.53 0.53 0.53 0 0 0.001 0 0.002 0h0.532z"></path>
<path fill="#77a246" style="fill: var(--color4, #77a246)" d="M4.244 27.756h1.461v1.461h-1.461v-1.461z"></path>
<path fill="#77a246" style="fill: var(--color4, #77a246)" d="M26.157 27.756h1.461v1.461h-1.461v-1.461z"></path>
</symbol>
<symbol id="icon-angle-up" viewBox="0 0 21 32">
<path d="M19.197 21.143c0 0.143-0.072 0.304-0.178 0.41l-0.893 0.893c-0.107 0.107-0.25 0.178-0.41 0.178-0.143 0-0.304-0.072-0.41-0.178l-7.018-7.018-7.018 7.018c-0.107 0.107-0.267 0.178-0.41 0.178s-0.304-0.072-0.41-0.178l-0.893-0.893c-0.107-0.107-0.178-0.267-0.178-0.41s0.072-0.304 0.178-0.41l8.321-8.321c0.107-0.107 0.267-0.178 0.41-0.178s0.304 0.072 0.41 0.178l8.321 8.321c0.107 0.107 0.178 0.267 0.178 0.41z"></path>
</symbol>
<symbol id="icon-angle-down" viewBox="0 0 21 32">
<path d="M19.197 13.143c0 0.143-0.072 0.304-0.178 0.41l-8.321 8.321c-0.107 0.107-0.267 0.178-0.41 0.178s-0.304-0.072-0.41-0.178l-8.321-8.321c-0.107-0.107-0.178-0.267-0.178-0.41s0.072-0.304 0.178-0.41l0.893-0.893c0.107-0.107 0.25-0.178 0.41-0.178 0.143 0 0.304 0.072 0.41 0.178l7.018 7.018 7.018-7.018c0.107-0.107 0.267-0.178 0.41-0.178s0.304 0.072 0.41 0.178l0.893 0.893c0.107 0.107 0.178 0.267 0.178 0.41z"></path>
</symbol>
<symbol id="icon-select-movie" viewBox="0 0 32 32">
<path fill="#fff" style="fill: var(--color1, #fff)" d="M15.509 0h0.937c4.85 0.141 9.589 2.594 12.415 6.552 1.973 2.686 2.975 5.985 3.139 9.295v0.869c-0.278 4.918-2.846 9.741-6.99 12.469-2.48 1.752-5.501 2.678-8.518 2.815h-1.154c-4.419-0.19-8.743-2.248-11.573-5.665-2.183-2.598-3.467-5.89-3.764-9.261v-2.305c0.316-3.402 1.688-6.709 3.935-9.288 2.876-3.333 7.185-5.333 11.573-5.482zM14.583 2.389c-3.665 0.305-7.101 2.259-9.356 5.143-2.48 3.063-3.459 7.246-2.674 11.101 0.731 4.019 3.421 7.646 7.063 9.497 2.865 1.558 6.305 1.909 9.47 1.215 4.137-0.891 7.695-3.874 9.41-7.73 2.45-5.276 1.040-12.069-3.41-15.844-2.811-2.56-6.728-3.802-10.503-3.383z"></path>
<path fill="#fff" style="fill: var(--color1, #fff)" d="M13.192 20.194c3.299-3.299 6.587-6.606 9.874-9.912 0.438 0.45 0.88 0.899 1.322 1.345-3.749 3.695-7.451 7.436-11.196 11.135-1.733-1.71-3.467-3.421-5.192-5.135 0.438-0.446 0.876-0.891 1.314-1.337 1.295 1.299 2.59 2.598 3.878 3.905z"></path>
</symbol>
<symbol id="icon-popcorn" viewBox="0 0 23 32">
<path fill="#77a246" style="fill: var(--color4, #77a246)" d="M7.859 0.002c-0.98 0.212-1.788 0.817-2.267 1.637l-0.009 0.016c-0.872 0.012-1.634 0.474-2.066 1.163l-0.006 0.010c-0.185 0.389-0.293 0.844-0.293 1.325 0 0.17 0.013 0.337 0.039 0.499l-0.002-0.018c-0.749 0.103-1.389 0.499-1.811 1.067l-0.005 0.007c-0.287 0.465-0.458 1.028-0.458 1.631 0 0.196 0.018 0.387 0.052 0.573l-0.003-0.019c-0.624 0.525-1.018 1.306-1.018 2.18 0 0.11 0.006 0.218 0.018 0.324l-0.001-0.013c0.237 0.99 0.833 1.812 1.639 2.339l0.015 0.009 3.224 18.719c0.059 0.309 0.322 0.541 0.641 0.552l0.001 0h12.412c0.32-0.010 0.584-0.242 0.642-0.547l0.001-0.004 3.255-18.867c0.609-0.614 0.985-1.46 0.985-2.393 0-0.070-0.002-0.14-0.006-0.209l0 0.009c-0.123-0.806-0.609-1.477-1.283-1.851l-0.013-0.007c0.12-0.28 0.19-0.606 0.19-0.947 0-1.285-0.985-2.34-2.242-2.45l-0.009-0.001c0.004-0.066 0.007-0.143 0.007-0.221 0-0.804-0.263-1.546-0.707-2.146l0.007 0.010c-0.405-0.382-0.952-0.616-1.555-0.616-0.22 0-0.433 0.031-0.635 0.090l0.016-0.004c-0.37-0.854-1.119-1.483-2.028-1.681l-0.019-0.004c-0.059-0.006-0.128-0.009-0.198-0.009-0.698 0-1.322 0.315-1.739 0.811l-0.003 0.003c-0.284-0.235-0.649-0.383-1.048-0.398l-0.003-0c-0.463 0.025-0.876 0.219-1.184 0.521l0-0c-0.668-0.628-1.552-1.033-2.53-1.092l-0.011-0.001zM8.002 1.299c0.437-0.049 1.075 0.208 1.98 1.122 0.121 0.11 0.282 0.178 0.459 0.178 0.225 0 0.425-0.109 0.549-0.277l0.001-0.002c0.239-0.358 0.45-0.439 0.597-0.439s0.34 0.075 0.582 0.439c0.127 0.164 0.324 0.268 0.545 0.268 0.235 0 0.442-0.118 0.566-0.297l0.002-0.002c0.405-0.678 0.806-0.868 1.133-0.826s0.836 0.376 1.266 1.398c0.11 0.235 0.344 0.395 0.616 0.395 0.068 0 0.133-0.010 0.195-0.029l-0.005 0.001c0.19-0.090 0.413-0.143 0.648-0.143 0.251 0 0.489 0.060 0.698 0.167l-0.009-0.004c0.261 0.472 0.414 1.036 0.414 1.635 0 0.118-0.006 0.235-0.018 0.35l0.001-0.014c0.010 0.321 0.242 0.585 0.547 0.643l0.004 0.001c0.879 0.147 1.306 0.413 1.49 0.716 0.097 0.207 0.153 0.45 0.153 0.706 0 0.208-0.037 0.407-0.105 0.592l0.004-0.012c-0.077 0.010-0.165 0.016-0.255 0.016-0.625 0-1.183-0.288-1.549-0.738l-0.003-0.004c-0.121-0.181-0.325-0.299-0.556-0.299-0.020 0-0.039 0.001-0.059 0.003l0.003-0c-0.322 0.062-0.562 0.341-0.562 0.676 0 0.127 0.034 0.246 0.094 0.348l-0.002-0.003c0.589 0.817 1.538 1.343 2.61 1.343 0.232 0 0.459-0.025 0.677-0.072l-0.021 0.004c0.45 0.15 0.782 0.534 0.856 1.003l0.001 0.007c0 0.005 0 0.010 0 0.016 0 0.627-0.267 1.191-0.692 1.585l-0.001 0.001h-18.296c-0.591-0.352-1.031-0.905-1.23-1.563l-0.005-0.019c-0.009-0.058-0.014-0.125-0.014-0.193 0-0.418 0.19-0.793 0.489-1.040l0.002-0.002c0.374 0.154 0.807 0.243 1.262 0.243 0.883 0 1.688-0.337 2.292-0.889l-0.003 0.002c0.127-0.119 0.206-0.289 0.206-0.476 0-0.361-0.292-0.653-0.653-0.653-0.033 0-0.066 0.002-0.097 0.007l0.004-0c-0.444 0.422-1.046 0.681-1.709 0.681-0.295 0-0.578-0.051-0.84-0.146l0.017 0.005c-0.018-0.097-0.028-0.209-0.028-0.323 0-0.347 0.094-0.672 0.257-0.952l-0.005 0.009c0.29-0.36 0.73-0.588 1.224-0.588 0.080 0 0.158 0.006 0.235 0.017l-0.009-0.001c0.362-0.019 0.649-0.317 0.649-0.682 0-0.033-0.002-0.066-0.007-0.098l0 0.004c-0.065-0.222-0.103-0.477-0.103-0.74 0-0.324 0.056-0.634 0.16-0.922l-0.006 0.019c0.165-0.309 0.429-0.521 1.255-0.521 0.223-0.002 0.42-0.113 0.54-0.283l0.001-0.002c0.597-0.909 1.114-1.298 1.552-1.347zM7.42 2.922c-0.32 0.061-0.559 0.338-0.559 0.672 0 0.070 0.011 0.138 0.030 0.201l-0.001-0.005c0.422 1.221 1.562 2.083 2.903 2.083 0.002 0 0.004 0 0.007 0h-0c0.361 0 0.653-0.292 0.653-0.653s-0.292-0.653-0.653-0.653v0c-0.014 0-0.030 0.001-0.047 0.001-0.757 0-1.397-0.497-1.613-1.183l-0.003-0.012c-0.103-0.266-0.357-0.452-0.654-0.452-0.022 0-0.044 0.001-0.065 0.003l0.003-0zM13.339 2.922c-0.338 0.042-0.598 0.328-0.598 0.675 0 0.011 0 0.021 0.001 0.031l-0-0.001c0.13 1.39 1.114 2.518 2.417 2.861l0.023 0.005c0.070 0.028 0.151 0.044 0.235 0.044 0.361 0 0.653-0.292 0.653-0.653 0-0.323-0.235-0.592-0.543-0.644l-0.004-0.001c-0.774-0.24-1.35-0.891-1.478-1.692l-0.002-0.012c-0.035-0.346-0.324-0.613-0.676-0.613-0.010 0-0.021 0-0.031 0.001l0.001-0zM11.702 6.494c-0.269 0.027-0.489 0.209-0.571 0.455l-0.001 0.005c-0.179 0.342-0.531 0.571-0.936 0.571-0.263 0-0.503-0.096-0.688-0.256l0.001 0.001c-0.103-0.070-0.23-0.112-0.367-0.112-0.364 0-0.658 0.295-0.658 0.658 0 0.227 0.114 0.426 0.289 0.545l0.002 0.001c0.39 0.292 0.881 0.467 1.414 0.467 0.98 0 1.821-0.594 2.183-1.442l0.006-0.016c-0.011-0.513-0.26-0.863-0.673-0.879zM14.795 8.147c-0.539 0.014-1.038 0.175-1.461 0.445l0.011-0.007c-0.177 0.12-0.291 0.32-0.291 0.546 0 0.364 0.295 0.658 0.658 0.658 0.137 0 0.264-0.042 0.37-0.113l-0.002 0.001c0.183-0.158 0.424-0.255 0.687-0.255 0.406 0 0.758 0.229 0.934 0.565l0.003 0.006c0.090 0.263 0.335 0.448 0.623 0.448 0.363 0 0.657-0.294 0.657-0.657 0-0.075-0.012-0.147-0.035-0.214l0.001 0.005c-0.309-0.844-1.105-1.436-2.040-1.436-0.038 0-0.077 0.001-0.115 0.003l0.005-0zM6.631 8.801c-0.539 0.014-1.038 0.175-1.461 0.445l0.011-0.007c-0.177 0.12-0.291 0.32-0.291 0.546 0 0.364 0.295 0.658 0.658 0.658 0.137 0 0.264-0.042 0.37-0.113l-0.002 0.001c0.183-0.158 0.424-0.255 0.686-0.255 0.406 0 0.758 0.229 0.934 0.565l0.003 0.006c0.090 0.263 0.335 0.448 0.623 0.448 0.363 0 0.657-0.294 0.657-0.657 0-0.075-0.012-0.147-0.036-0.214l0.001 0.005c-0.31-0.842-1.106-1.432-2.039-1.432-0.039 0-0.078 0.001-0.117 0.003l0.005-0zM3.062 13.061h2.551l1.827 17.637h-1.337zM7.583 13.061h3.194v17.637h-1.367zM12.736 13.061h3.194l-1.827 17.637h-1.367zM17.901 13.061h2.552l-3.041 17.637h-1.337z"></path>
</symbol>
<symbol id="icon-unselect" viewBox="0 0 32 32">
<path fill="#77a246" style="fill: var(--color4, #77a246)" d="M15.891 0h0.269c8.451-0.080 15.943 7.446 15.84 15.891v0.28c0.074 8.44-7.434 15.92-15.874 15.829h-0.297c-8.349 0.069-15.8-7.286-15.829-15.634v-0.6c-0.046-8.417 7.474-15.874 15.891-15.766zM12.829 2.674c-3.526 0.771-6.571 3.126-8.503 6.137-2.674 4.291-2.691 10.091 0.006 14.383 1.771 2.754 4.474 4.971 7.64 5.909 5.006 1.543 10.817 0.006 14.24-4.006 4.623-4.891 4.617-13.326-0.017-18.211-3.223-3.766-8.577-5.354-13.366-4.211z"></path>
<path fill="#121212" style="fill: var(--color5, #121212)" d="M12.829 2.674c4.789-1.143 10.143 0.446 13.366 4.211 4.634 4.886 4.64 13.32 0.017 18.211-3.423 4.011-9.234 5.549-14.24 4.006-3.166-0.937-5.869-3.154-7.64-5.909-2.697-4.291-2.68-10.091-0.006-14.383 1.931-3.011 4.977-5.366 8.503-6.137z"></path>
</symbol>
<symbol id="icon-selected" viewBox="0 0 32 32">
<path fill="#77a246" style="fill: var(--color4, #77a246)" d="M15.817 0h0.406c8.394-0.040 15.834 7.417 15.777 15.811v0.423c0.040 8.389-7.411 15.811-15.794 15.766h-0.429c-8.286 0.040-15.669-7.223-15.777-15.503v-0.783c-0.011-8.377 7.446-15.777 15.817-15.714zM12.846 2.669c-4.926 1.109-9.046 5.217-10.171 10.143-0.617 2.806-0.457 5.817 0.68 8.48 1.914 4.566 6.44 8.006 11.423 8.331 4.394 0.463 8.897-1.417 11.697-4.829 3.149-3.566 3.989-8.84 2.469-13.297-2.131-6.469-9.48-10.537-16.097-8.829z"></path>
<path fill="#77a246" style="fill: var(--color4, #77a246)" d="M23.086 10.286c0.423 0.423 0.851 0.851 1.274 1.274-3.703 3.726-7.44 7.417-11.154 11.131-1.743-1.697-3.469-3.417-5.2-5.131 0.429-0.423 0.857-0.846 1.291-1.263 1.314 1.269 2.583 2.583 3.909 3.846 3.309-3.269 6.571-6.583 9.88-9.857z"></path>
<path fill="#121212" style="fill: var(--color5, #121212)" d="M12.846 2.669c6.617-1.709 13.966 2.36 16.097 8.829 1.52 4.457 0.68 9.731-2.469 13.297-2.8 3.411-7.303 5.291-11.697 4.829-4.983-0.326-9.509-3.766-11.423-8.331-1.137-2.663-1.297-5.674-0.68-8.48 1.126-4.926 5.246-9.034 10.171-10.143zM23.086 10.286c-3.309 3.274-6.571 6.589-9.88 9.857-1.326-1.263-2.594-2.577-3.909-3.846-0.434 0.417-0.863 0.84-1.291 1.263 1.731 1.714 3.457 3.434 5.2 5.131 3.714-3.714 7.451-7.406 11.154-11.131-0.423-0.423-0.851-0.851-1.274-1.274z"></path>
</symbol>
</defs>
</svg>
