<svg xmlns="http://www.w3.org/2000/svg" width="169" height="126.385" viewBox="0 0 169 126.385"><defs><style>.a{fill:#231f20;}.b{fill:#fefefe;}.c{fill:#ed1b24;}.d{fill:#fff;font-size:25px;font-family:Roboto-Medium, Roboto;font-weight:500;}</style></defs><g transform="translate(-55 -47.615)"><g transform="translate(-249.54 -68.624)"><g transform="translate(348.54 116.239)"><path class="a" d="M403.6,116.472c.273-.133.644-.454.787.007,1.574,2.522,3.1,5.075,4.657,7.607q-22.479,13.747-44.937,27.526c-1.307.853-2.72,1.552-3.941,2.529,4.579-.7,9.119-1.643,13.683-2.449,13.56-2.465,27.105-5.009,40.672-7.429a10.952,10.952,0,0,0,6.055,6.564,8.508,8.508,0,0,0,4.443.842c.047.387.1.775.147,1.162a1.963,1.963,0,0,0-1.26,1.628,1.767,1.767,0,0,0,1.868,1.681c.064.321.131.642.2.965a1.773,1.773,0,0,0-1.217,2.109c.174.83,1.041,1.117,1.783,1.2.078.309.154.62.238.932-.761.43-1.612,1.189-1.231,2.17.2.844,1.124,1.015,1.8,1.315.088.264.164.535.228.811-.642.342-1.35.834-1.319,1.659a1.8,1.8,0,0,0,1.935,1.674c-.029.395.231.941-.216,1.17a1.63,1.63,0,0,0-.758,2.168c.266.7,1.06.832,1.712.93.1.511.2,1.02.266,1.54a13.128,13.128,0,0,0-2.7,1.431,11.487,11.487,0,0,0-4.438,9.471q-29.379,5.384-58.759,10.776a10.452,10.452,0,0,0-5.016-6.193,8.709,8.709,0,0,0-5.48-1.4c-.1-.544-.2-1.089-.3-1.633a2.042,2.042,0,0,0,1.545-2.078c-.307-.913-1.331-1.186-2.173-1.324-.04-.295-.081-.587-.119-.877.725-.373,1.548-.925,1.552-1.84-.119-1.022-1.248-1.464-2.156-1.457-.076-.326-.15-.647-.223-.968.82-.373,1.754-1.091,1.559-2.116-.319-.92-1.353-1.132-2.187-1.31-.052-.29-.1-.58-.155-.868.87-.314,1.788-1.105,1.521-2.137-.295-.889-1.334-1.11-2.144-1.265-.048-.295-.093-.587-.138-.877.82-.376,1.778-1.1,1.526-2.132a2.209,2.209,0,0,0-2.123-1.182c-.086-.39-.169-.775-.254-1.16a9.584,9.584,0,0,0,5.591-4.6,10.639,10.639,0,0,0,1.234-2.781,3.446,3.446,0,0,1-1.664-2.349,3.885,3.885,0,0,1,.834-2.9c-1-1.55-1.914-3.152-2.907-4.7q26.006-15.882,51.974-31.831M392.153,124.9c2.078,1.429,4.134,2.886,6.2,4.334,2.285-1.348,4.51-2.8,6.813-4.113-1.983-1.574-4.129-2.936-6.174-4.431-2.289,1.384-4.588,2.76-6.837,4.21m-12.172,7.481c2.054,1.455,4.106,2.917,6.181,4.348,2.244-1.429,4.533-2.784,6.806-4.165q-3.088-2.243-6.24-4.4c-2.225,1.441-4.555,2.724-6.747,4.217M373.955,136c-2.049,1.286-4.122,2.537-6.2,3.78,1.866,1.533,3.937,2.8,5.886,4.224.3.333.675-.055.963-.195,2.03-1.3,4.125-2.5,6.152-3.8-2.025-1.369-3.994-2.824-6.019-4.2-.252-.233-.547.093-.784.188m-12.224,7.5c-2.075,1.281-4.167,2.534-6.238,3.823,1.888,1.3,3.754,2.639,5.627,3.963.281.195.63.449.956.178,2.187-1.269,4.3-2.658,6.488-3.934-1.964-1.424-3.97-2.789-5.943-4.2-.278-.314-.623.048-.889.166M405.6,147.99c-.611,2.46-1.115,4.949-1.716,7.412,2.634-.385,5.228-1.013,7.864-1.4.616-2.484,1.139-4.99,1.721-7.481-2.615.528-5.237,1.029-7.869,1.467m-14.052,2.634c-.661,2.463-1.167,4.966-1.728,7.453,2.62-.487,5.237-1,7.866-1.455.578-2.46,1.1-4.935,1.719-7.389-2.636.361-5.228,1-7.857,1.391m-13.189,2.5c-.388.1-1.025.059-1.041.618-.53,2.33-1.112,4.65-1.555,7,2.613-.542,5.242-1,7.864-1.491.535-2.463,1.113-4.916,1.655-7.379-2.32.34-4.612.853-6.923,1.253M354.9,155.654c.071.977.979,1.514,1.828,1.759a2.8,2.8,0,0,0,1.633-.83,1.99,1.99,0,0,0-.818-3.022,1.962,1.962,0,0,0-2.644,2.092m8.444.247c-.554,2.484-1.181,4.954-1.624,7.46,2.589-.521,5.187-.982,7.783-1.469.611-2.456,1.155-4.93,1.693-7.405-2.625.43-5.223,1.013-7.852,1.414m20.173,9.316a7.354,7.354,0,0,0,.34,2.988c.673,3.2,1.317,6.407,1.783,9.645.521,2.518.616,5.092.958,7.636.183.178.366.359.552.542a41.129,41.129,0,0,0,4.013-3.083q5.734-4.775,11.556-9.442c.021-.395.04-.789.062-1.184a27.444,27.444,0,0,0-3.773-1.45l-.573-.278c-2.054-.858-4.182-1.507-6.221-2.392C389.274,167.32,386.567,165.7,383.517,165.218Z" transform="translate(-348.54 -116.239)"/></g><g transform="translate(354.867 120.695)"><path class="b" d="M532,139.19c2.249-1.45,4.548-2.827,6.837-4.21,2.044,1.5,4.191,2.857,6.174,4.431-2.3,1.317-4.529,2.765-6.813,4.113C536.134,142.076,534.078,140.619,532,139.19Z" transform="translate(-494.714 -134.98)"/><path class="b" d="M480.8,170.637c2.192-1.493,4.522-2.777,6.747-4.217q3.152,2.154,6.24,4.4c-2.273,1.381-4.562,2.736-6.806,4.165C484.906,173.554,482.854,172.092,480.8,170.637Z" transform="translate(-455.685 -158.946)"/><path class="b" d="M435.577,198.5c.238-.1.533-.421.785-.188,2.025,1.372,3.994,2.827,6.019,4.2-2.028,1.305-4.122,2.5-6.152,3.8-.288.14-.661.528-.963.195-1.949-1.424-4.02-2.691-5.886-4.224C431.455,201.04,433.528,199.79,435.577,198.5Z" transform="translate(-416.489 -183.197)"/><path class="b" d="M384.028,230c.266-.119.611-.48.889-.166,1.973,1.407,3.98,2.772,5.943,4.2-2.185,1.277-4.3,2.665-6.487,3.934-.326.271-.675.017-.956-.178-1.873-1.324-3.74-2.66-5.627-3.963C379.861,232.53,381.953,231.277,384.028,230Z" transform="translate(-377.163 -207.186)"/><path class="b" d="M583.056,245.1c2.632-.437,5.254-.939,7.869-1.467-.582,2.491-1.105,5-1.721,7.481-2.636.385-5.23,1.013-7.864,1.4C581.941,250.046,582.445,247.557,583.056,245.1Z" transform="translate(-532.324 -217.801)"/><path class="b" d="M523.908,256.421c2.629-.392,5.22-1.029,7.857-1.391-.616,2.453-1.141,4.928-1.719,7.388-2.629.456-5.247.968-7.866,1.455C522.741,261.387,523.247,258.883,523.908,256.421Z" transform="translate(-487.228 -226.491)"/><path class="b" d="M465.646,267.363c2.311-.4,4.6-.913,6.923-1.253-.542,2.463-1.12,4.916-1.654,7.379-2.622.494-5.251.949-7.864,1.491.442-2.349,1.025-4.669,1.555-7C464.621,267.422,465.258,267.458,465.646,267.363Z" transform="translate(-442.155 -234.937)"/><path class="b" d="M375.186,274.858a1.962,1.962,0,0,1,2.644-2.092,1.99,1.99,0,0,1,.818,3.021,2.8,2.8,0,0,1-1.633.83C376.165,276.372,375.257,275.835,375.186,274.858Z" transform="translate(-375.153 -239.898)"/><path class="b" d="M405.6,278.544c2.629-.4,5.228-.984,7.852-1.414-.537,2.475-1.082,4.949-1.693,7.405-2.6.487-5.194.949-7.783,1.469C404.422,283.5,405.05,281.029,405.6,278.544Z" transform="translate(-397.127 -243.337)"/></g><g transform="translate(383.496 165.218)"><path class="c" d="M495.6,322.27c3.05.485,5.758,2.1,8.7,2.981,2.04.884,4.167,1.533,6.221,2.392l.573.278a27.453,27.453,0,0,1,3.773,1.45c-.021.395-.041.789-.062,1.184q-5.812,4.678-11.556,9.442a41.145,41.145,0,0,1-4.013,3.083c-.185-.183-.369-.364-.552-.542-.342-2.544-.437-5.118-.958-7.636-.466-3.238-1.11-6.445-1.783-9.645A7.356,7.356,0,0,1,495.6,322.27Z" transform="translate(-495.582 -322.27)"/></g></g><text class="d" transform="translate(55 167)"><tspan x="0" y="0">Movies Tickets</tspan></text></g></svg>